# Blender 4.2.1 LTS
# www.blender.org
mtllib ch_suzanne.mtl
o Suzanne
v 0.351562 0.242188 0.828125
v -0.351562 0.242188 0.828125
v 0.445312 0.156250 0.781250
v -0.445312 0.156250 0.781250
v 0.000000 0.898438 -0.546875
v 0.000000 0.562500 -0.851562
v 0.000000 0.070312 -0.828125
v 0.367188 -0.890625 0.531250
v -0.367188 -0.890625 0.531250
v 0.328125 -0.945312 0.523438
v -0.328125 -0.945312 0.523438
v 0.179688 -0.968750 0.554688
v -0.179688 -0.968750 0.554688
v 0.000000 -0.984375 0.578125
v 0.859375 0.429688 0.593750
v -0.859375 0.429688 0.593750
v 0.320312 0.757812 0.734375
v -0.320312 0.757812 0.734375
v 0.000000 -0.765625 0.734375
v 0.109375 -0.718750 0.734375
v -0.109375 -0.718750 0.734375
v 0.117188 -0.835938 0.710938
v -0.117188 -0.835938 0.710938
v 0.062500 -0.882812 0.695312
v -0.062500 -0.882812 0.695312
v 0.687500 0.414062 0.726562
v -0.687500 0.414062 0.726562
v 0.312500 0.640625 0.835938
v -0.312500 0.640625 0.835938
v 0.203125 0.617188 0.851562
v -0.203125 0.617188 0.851562
v 0.265625 -0.820312 0.664062
v -0.265625 -0.820312 0.664062
v 0.234375 -0.914062 0.632812
v -0.234375 -0.914062 0.632812
v 0.164062 -0.929688 0.632812
v -0.164062 -0.929688 0.632812
v 0.000000 -0.945312 0.640625
v 0.109375 -0.226562 0.828125
v -0.109375 -0.226562 0.828125
v 0.000000 0.898438 0.289062
v 0.000000 0.984375 -0.078125
v 0.000000 -0.195312 -0.671875
v 0.000000 -0.976562 0.460938
v 0.328125 -0.914062 0.398438
v -0.328125 -0.914062 0.398438
v 0.453125 0.867188 -0.382812
v -0.453125 0.867188 -0.382812
v 0.453125 0.929688 -0.070312
v -0.453125 0.929688 -0.070312
v 0.453125 0.851562 0.234375
v -0.453125 0.851562 0.234375
v 1.281250 0.054688 -0.429688
v -1.281250 0.054688 -0.429688
v 1.351562 0.320312 -0.421875
v -1.351562 0.320312 -0.421875
v 1.234375 0.507812 -0.421875
v -1.234375 0.507812 -0.421875
v 1.250000 0.468750 -0.546875
v -1.250000 0.468750 -0.546875
v 1.367188 0.296875 -0.500000
v -1.367188 0.296875 -0.500000
v 1.312500 0.054688 -0.531250
v -1.312500 0.054688 -0.531250
v 1.039062 -0.085938 -0.492188
v -1.039062 -0.085938 -0.492188
vn 0.1231 -0.8616 0.4924
vn -0.1231 -0.8616 0.4924
vn 0.2190 -0.8647 0.4520
vn -0.2190 -0.8647 0.4520
vn 0.5902 -0.4550 0.6668
vn -0.5902 -0.4550 0.6668
vn 0.1863 -0.5723 0.7986
vn -0.1863 -0.5723 0.7986
vn 0.1275 0.9744 -0.1851
vn -0.1275 0.9744 -0.1851
vn 0.9285 -0.2497 0.2748
vn -0.9285 -0.2497 0.2748
vn 0.8393 0.5424 -0.0378
vn -0.8393 0.5424 -0.0378
vn 0.4046 0.0266 -0.9141
vn -0.4046 0.0266 -0.9141
vn -0.0000 0.6549 0.7557
vn 0.0779 -0.9948 -0.0663
vn -0.0779 -0.9948 -0.0663
vn -0.1226 -0.9806 -0.1532
vn -0.1373 -0.9610 -0.2402
vn -0.0486 -0.8222 -0.5671
vn 0.0486 -0.8222 -0.5671
vn 0.1373 -0.9610 -0.2402
vn 0.1226 -0.9806 -0.1532
vn 0.1008 -0.7103 0.6966
vn -0.1008 -0.7103 0.6966
vn -0.0000 -0.6585 0.7526
vn -0.7886 -0.5887 0.1779
vn -0.5873 -0.7852 -0.1963
vn -0.3482 -0.8087 -0.4740
vn -0.1844 -0.7888 -0.5863
vn 0.1856 -0.4982 -0.8470
vn 0.1973 -0.5991 -0.7760
vn 0.1844 -0.7888 -0.5863
vn -0.1973 -0.5991 -0.7760
vn -0.1856 -0.4982 -0.8470
vn 0.3482 -0.8087 -0.4740
vn 0.5873 -0.7852 -0.1963
vn 0.7886 -0.5887 0.1779
vn 0.3143 -0.3928 0.8642
vn -0.0000 -0.3162 0.9487
vn -0.3143 -0.3928 0.8642
vn -0.6820 -0.2861 0.6730
vn -0.8244 -0.3291 0.4604
vn -0.8104 -0.5301 0.2494
vn -0.2368 -0.0009 -0.9716
vn -0.2199 -0.0464 -0.9744
vn 0.2199 -0.0464 -0.9744
vn 0.8104 -0.5301 0.2494
vn 0.2368 -0.0009 -0.9716
vn 0.8244 -0.3291 0.4604
vn 0.6820 -0.2861 0.6730
vn 0.3132 -0.1755 0.9333
vn 0.6066 -0.2456 0.7561
vn 0.3958 -0.1809 0.9003
vn 0.3251 -0.1714 0.9300
vn 0.1390 -0.1853 0.9728
vn 0.0815 -0.1902 0.9783
vn -0.0815 -0.1902 0.9783
vn -0.1390 -0.1853 0.9728
vn -0.3132 -0.1755 0.9333
vn -0.3251 -0.1714 0.9300
vn -0.3958 -0.1809 0.9003
vn -0.6066 -0.2456 0.7561
vn -0.5041 0.4915 0.7102
vn -0.5062 0.5453 0.6681
vn -0.5517 0.7809 0.2930
vn -0.5685 0.7772 0.2697
vn -0.7994 0.4996 0.3336
vn -0.8628 -0.2415 0.4441
vn -0.3975 0.8888 -0.2281
vn -0.2641 0.7683 -0.5831
vn -0.2250 0.6546 -0.7217
vn 0.2250 0.6546 -0.7217
vn 0.3975 0.8888 -0.2281
vn 0.2641 0.7683 -0.5831
vn 0.7994 0.4996 0.3336
vn 0.8628 -0.2415 0.4441
vn 0.5685 0.7772 0.2697
vn 0.5517 0.7809 0.2930
vn 0.5062 0.5453 0.6681
vn 0.5041 0.4915 0.7102
vn 0.3170 -0.1638 0.9342
vn 0.0683 -0.0353 0.9970
vn -0.0000 -0.0278 0.9996
vn -0.0000 -0.1713 0.9852
vn 0.0799 -0.1865 0.9792
vn 0.2851 0.0092 0.9585
vn 0.3467 -0.1286 0.9291
vn -0.0799 -0.1865 0.9792
vn -0.0683 -0.0353 0.9970
vn -0.3170 -0.1638 0.9342
vn -0.3467 -0.1286 0.9291
vn -0.2851 0.0092 0.9585
vn -0.1426 -0.0054 0.9898
vn -0.0000 0.5547 0.8321
vn -0.2437 0.9395 0.2409
vn -0.0000 0.9536 0.3011
vn -0.1100 0.9678 0.2265
vn -0.1129 0.9677 0.2253
vn -0.5360 0.8178 0.2097
vn -0.4037 0.8971 -0.1794
vn 0.4037 0.8971 -0.1794
vn 0.5360 0.8178 0.2097
vn 0.2437 0.9395 0.2409
vn 0.1129 0.9677 0.2253
vn 0.1100 0.9678 0.2265
vn 0.1426 -0.0054 0.9898
vt 0.520711 0.060503
vt 0.517028 0.068490
vt 0.500000 0.064527
vt 0.500000 0.054411
vt 0.482972 0.068490
vt 0.479289 0.060503
vt 0.530457 0.065062
vt 0.522612 0.070678
vt 0.477388 0.070678
vt 0.469543 0.065062
vt 0.532878 0.067822
vt 0.526301 0.079422
vt 0.473699 0.079422
vt 0.467122 0.067822
vt 0.511782 0.080633
vt 0.506819 0.075382
vt 0.493181 0.075382
vt 0.488218 0.080633
vt 0.958963 0.357385
vt 0.881169 0.309153
vt 0.903302 0.261367
vt 0.999860 0.253531
vt 0.096698 0.261367
vt 0.118831 0.309153
vt 0.041037 0.357385
vt 0.000140 0.253531
vt 0.683874 0.757011
vt 0.617867 0.719156
vt 0.644031 0.693270
vt 0.668163 0.712097
vt 0.106195 0.693270
vt 0.132359 0.719156
vt 0.066352 0.757011
vt 0.082063 0.712097
vt 0.727131 0.698475
vt 0.676584 0.686010
vt 0.023095 0.698475
vt 0.073642 0.686010
vt 0.000000 0.000000
vt 0.405822 0.371277
vt 0.594178 0.371277
vt 0.602261 0.395588
vt 0.500000 0.033223
vt 0.462778 0.060794
vt 0.537222 0.060794
vt 0.136716 0.655816
vt 0.922374 0.064228
vt 0.861342 0.027230
vt 0.613510 0.655816
vt 0.987633 0.154243
vt 0.512172 0.093457
vt 0.500000 0.091346
vt 0.487828 0.093457
vt 0.397739 0.395588
vt 0.034332 0.897069
vt 0.715894 0.897069
vt 0.839848 0.611927
vt 0.866314 0.611927
vt 0.866314 0.865345
vt 0.866314 0.891811
vt 0.155683 0.347370
vt 0.899807 0.420886
vt 0.844317 0.347370
s 0
f 12/1/1 36/2/1 38/3/1 14/4/1
f 38/3/2 37/5/2 13/6/2 14/4/2
f 10/7/3 34/8/3 36/2/3 12/1/3
f 37/5/4 35/9/4 11/10/4 13/6/4
f 8/11/5 32/12/5 34/8/5 10/7/5
f 35/9/6 33/13/6 9/14/6 11/10/6
f 22/15/7 24/16/7 36/2/7 34/8/7
f 37/5/8 25/17/8 23/18/8 35/9/8
f 42/19/9 49/20/9 47/21/9 5/22/9
f 48/23/10 50/24/10 42/25/10 5/26/10
f 55/27/11 53/28/11 63/29/11 61/30/11
f 64/31/12 54/32/12 56/33/12 62/34/12
f 57/35/13 55/27/13 61/30/13 59/36/13
f 62/34/14 56/33/14 58/37/14 60/38/14
f 59/36/15 61/30/15 63/29/15
f 64/31/16 62/34/16 60/38/16
f 18/39/17 29/40/17 28/41/17 17/42/17
f 44/43/18 12/1/18 14/4/18
f 13/6/19 44/43/19 14/4/19
f 13/6/20 11/10/20 44/43/20
f 11/10/21 46/44/21 44/43/21
f 46/44/22 43/39/22 44/43/22
f 43/39/23 45/39/23 44/43/23
f 45/45/24 10/7/24 44/43/24
f 10/7/25 12/1/25 44/43/25
f 24/16/26 38/3/26 36/2/26
f 25/17/27 37/5/27 38/3/27
f 24/16/28 25/17/28 38/3/28
f 9/14/29 64/39/29 11/10/29
f 64/39/30 46/44/30 11/10/30
f 64/31/31 66/46/31 46/44/31
f 66/46/32 43/39/32 46/44/32
f 7/47/33 63/39/33 43/48/33
f 63/29/34 65/49/34 43/48/34
f 65/49/35 45/39/35 43/39/35
f 66/46/36 64/31/36 43/39/36
f 64/31/37 7/47/37 43/48/37
f 65/49/38 63/29/38 45/39/38
f 63/29/39 10/7/39 45/45/39
f 63/29/40 8/11/40 10/7/40
f 32/12/41 22/15/41 34/8/41
f 22/39/42 23/18/42 25/17/42
f 22/39/42 25/17/42 24/16/42
f 23/18/43 33/13/43 35/9/43
f 33/13/44 16/39/44 9/14/44
f 16/39/45 54/39/45 9/14/45
f 54/32/46 64/31/46 9/14/46
f 60/38/47 6/39/47 64/31/47
f 6/50/48 7/47/48 64/31/48
f 6/50/49 63/39/49 7/47/49
f 53/28/50 8/11/50 63/29/50
f 6/50/51 59/36/51 63/29/51
f 53/28/52 15/39/52 8/11/52
f 15/39/53 32/12/53 8/11/53
f 39/39/54 22/15/54 32/12/54
f 15/39/55 26/39/55 32/12/55
f 26/39/56 3/39/56 32/12/56
f 3/39/57 39/39/57 32/12/57
f 39/39/58 20/51/58 22/15/58
f 20/51/59 19/52/59 22/15/59
f 19/52/42 23/18/42 22/39/42
f 19/52/60 21/53/60 23/18/60
f 21/53/61 40/39/61 23/18/61
f 40/39/62 33/13/62 23/18/62
f 40/39/63 4/39/63 33/13/63
f 4/39/64 27/39/64 33/13/64
f 27/39/65 16/39/65 33/13/65
f 27/39/66 29/39/66 16/39/66
f 29/40/67 18/54/67 16/39/67
f 18/54/68 52/39/68 16/39/68
f 52/39/69 58/39/69 16/39/69
f 58/55/70 56/33/70 16/39/70
f 56/33/71 54/32/71 16/39/71
f 58/37/72 48/39/72 60/38/72
f 48/23/73 5/26/73 60/38/73
f 5/22/74 6/50/74 60/38/74
f 5/22/75 59/36/75 6/50/75
f 47/39/76 57/35/76 59/36/76
f 5/22/77 47/21/77 59/36/77
f 57/56/78 15/39/78 55/27/78
f 15/39/79 53/28/79 55/27/79
f 57/56/80 51/39/80 15/39/80
f 51/39/81 17/39/81 15/39/81
f 17/42/82 28/41/82 15/39/82
f 28/41/83 26/39/83 15/39/83
f 3/57/84 1/58/84 39/39/84
f 1/58/85 30/39/85 39/39/85
f 30/39/86 31/39/86 40/39/86
f 30/39/86 40/39/86 39/39/86
f 40/39/87 19/39/87 39/39/87
f 19/52/88 20/51/88 39/39/88
f 28/41/89 1/39/89 26/39/89
f 1/58/90 3/57/90 26/39/90
f 40/39/91 21/53/91 19/52/91
f 31/39/92 2/39/92 40/39/92
f 2/59/93 4/60/93 40/39/93
f 2/59/94 27/39/94 4/39/94
f 2/59/95 29/39/95 27/39/95
f 2/39/96 31/39/96 29/40/96
f 28/41/97 29/40/97 31/39/97 30/39/97
f 50/24/98 52/61/98 18/54/98
f 17/42/99 41/39/99 18/39/99
f 41/62/100 42/19/100 18/39/100
f 42/25/101 50/24/101 18/54/101
f 50/24/102 58/39/102 52/39/102
f 50/24/103 48/23/103 58/37/103
f 49/20/104 57/35/104 47/39/104
f 49/20/105 51/63/105 57/56/105
f 49/20/106 17/39/106 51/39/106
f 49/20/107 42/19/107 17/39/107
f 42/19/108 41/62/108 17/42/108
f 30/39/109 1/58/109 28/41/109
